<?xml version="1.0" encoding="utf-8" ?>
<svg xmlns="http://www.w3.org/2000/svg" xmlns:xlink="http://www.w3.org/1999/xlink" width="2000" height="2000">
	<path fill="#E89090" transform="scale(1.95312 1.95312)" d="M0 0L614.007 0L1024 0L1024 64.8596L1024 509.73L1024 704.963L1024 1024L792.764 1024L766.481 1024L759.007 1024L692.465 1024L589.917 1024L533.61 1024L525.828 1024L481.74 1024L463.47 1024L416.008 1024L398.949 1024L354.773 1024L263.994 1024L245.972 1024L221.996 1024L55.1135 1024L0 1024L0 1015.3L0 0Z"/>
	<defs>
		<linearGradient id="gradient_0" gradientUnits="userSpaceOnUse" x1="206.40038" y1="174.3317" x2="434.10565" y2="321.16348">
			<stop offset="0" stop-color="#542957"/>
			<stop offset="1" stop-color="#503F62"/>
		</linearGradient>
	</defs>
	<path fill="url(#gradient_0)" transform="scale(1.95312 1.95312)" d="M450.35 93.5549C453.965 90.3904 458.441 87.9785 462.681 85.7678Q464.222 84.9465 465.792 84.1796Q467.361 83.4127 468.956 82.701Q470.551 81.9893 472.17 81.3336Q473.788 80.6781 475.429 80.0794Q477.07 79.4807 478.731 78.9396Q480.391 78.3986 482.07 77.9158Q483.748 77.4331 485.443 77.0092Q487.137 76.5853 488.845 76.2208Q490.553 75.8564 492.273 75.5517Q493.993 75.2471 495.722 75.0027Q497.451 74.7583 499.188 74.5744Q500.925 74.3905 502.667 74.2673Q504.41 74.1442 506.155 74.0819Q507.9 74.0196 509.647 74.0183Q511.393 74.017 513.139 74.0767Q514.885 74.1363 516.627 74.2569C534.279 75.4195 558.997 82.1712 571.123 96.0031C572.327 97.3765 573.468 98.9417 573.343 100.865C573.135 104.052 571.297 107.35 570.026 110.241C568.185 114.146 566.413 119.235 563.881 122.684C552.975 125.942 542.58 123.174 531.592 121.794C516.523 119.902 500.917 121.755 487.018 128.042Q485.788 128.589 484.591 129.207Q483.394 129.825 482.235 130.511Q481.076 131.197 479.959 131.948Q478.842 132.7 477.77 133.515Q476.698 134.33 475.675 135.206Q474.652 136.082 473.681 137.015Q472.711 137.949 471.795 138.937Q470.88 139.925 470.024 140.964C462.228 150.34 456.89 161.57 450.822 172.081C433.094 202.791 414.273 235.905 385.546 257.726C365.226 273.162 341.037 285.13 317.075 293.711C306.751 297.408 296.101 300.282 285.836 304.09C278.813 306.235 263.31 306.724 255.303 307.274C228.476 309.117 205.022 311.053 179.595 320.794C156.264 329.281 135.235 341.112 119.947 361.283C106.865 378.544 100.573 399.307 102.705 420.998C103.193 425.96 104.836 430.687 105.401 435.542C105.433 435.816 105.457 436.09 105.486 436.364L105.91 436.371L104.74 436.246C104.332 435.608 100.179 418.971 99.933 417.246C95.3246 384.898 102.715 352.738 122.538 326.421Q123.949 324.572 125.436 322.785Q126.924 320.998 128.486 319.275Q130.048 317.552 131.681 315.897Q133.314 314.241 135.016 312.656Q136.717 311.072 138.484 309.56Q140.252 308.048 142.081 306.613Q143.91 305.177 145.799 303.82Q147.687 302.463 149.631 301.187Q151.575 299.911 153.572 298.719Q155.568 297.526 157.613 296.419Q159.658 295.312 161.748 294.292Q163.837 293.272 165.968 292.341Q168.099 291.411 170.268 290.571Q172.436 289.731 174.638 288.984Q176.84 288.236 179.072 287.583Q181.304 286.929 183.561 286.37C189.681 284.855 196.121 284.102 202.365 283.216C209.609 269.789 231.64 248.102 243.196 236.96Q240.516 236.55 237.821 236.267Q235.125 235.985 232.418 235.83Q229.712 235.676 227.001 235.65Q224.291 235.624 221.582 235.726Q218.873 235.829 216.172 236.059Q213.471 236.29 210.785 236.648Q208.098 237.007 205.431 237.492Q202.764 237.978 200.123 238.589C173.116 245.087 153.155 258.147 138.625 281.858C140.14 271.423 157.43 251.69 165.652 244.977C185.061 229.13 208.832 221.021 233.887 222.537C241.941 223.024 249.779 224.719 257.781 225.532C264.179 219.66 272.545 214.422 279.774 209.578C313.026 187.293 348.457 169.621 386.907 158.22C392.112 156.676 398.001 154.069 403.377 153.69C415.754 132.173 429.259 107.799 450.35 93.5549Z"/>
	<path fill="#352444" transform="scale(1.95312 1.95312)" d="M403.377 153.69C415.754 132.173 429.259 107.799 450.35 93.5549C449.333 99.9872 442.285 110.095 439.468 116.55C425.972 147.47 414.833 179.174 391.944 204.81C387.291 210.022 382.427 215.077 376.777 219.224C374.014 221.252 370.828 223.348 367.534 224.36C377.617 210.296 384.349 194.48 391.438 178.803Q397.266 166.179 403.377 153.69Z"/>
	<path fill="#F6B520" transform="scale(1.95312 1.95312)" d="M243.196 236.96C266.166 241.491 287.349 249.481 308.246 259.934C313.514 262.569 319.061 265.073 324.027 268.247C290.845 292.514 240.732 280.474 202.365 283.216C209.609 269.789 231.64 248.102 243.196 236.96Z"/>
	<path fill="#F6B520" transform="scale(1.95312 1.95312)" d="M257.781 225.532C264.179 219.66 272.545 214.422 279.774 209.578C313.026 187.293 348.457 169.621 386.907 158.22C392.112 156.676 398.001 154.069 403.377 153.69Q397.266 166.179 391.438 178.803C384.349 194.48 377.617 210.296 367.534 224.36C357.969 234.5 349.597 236.519 335.919 236.97C311.745 237.769 281.506 230.485 257.781 225.532Z"/>
	<path fill="#EDC578" transform="scale(1.95312 1.95312)" d="M204.623 786.425C211.318 793.491 217.19 801.368 223.702 808.612Q241.476 828.234 261.387 845.684Q253.495 872.073 246.264 898.651C243.724 908.164 241.986 918.379 238.918 927.679C234.664 947.814 228.868 967.764 225.416 988.034C223.39 999.925 222.621 1011.97 221.996 1024L55.1135 1024L0 1024L0 1015.3C16.316 994.556 31.9354 973.326 48.658 952.879Q66.6637 930.737 85.435 909.239Q104.206 887.742 123.72 866.916Q143.233 846.09 163.465 825.961Q183.697 805.832 204.623 786.425Z"/>
	<path fill="#E89090" transform="scale(1.95312 1.95312)" d="M55.1135 1024C65.9644 1014.95 78.7662 1007.42 90.7849 1000.06Q105.742 990.876 121.07 982.324Q136.398 973.773 152.07 965.871Q167.743 957.968 183.732 950.727Q199.72 943.487 215.998 936.921C223.366 933.904 231.249 929.625 238.918 927.679C234.664 947.814 228.868 967.764 225.416 988.034C223.39 999.925 222.621 1011.97 221.996 1024L55.1135 1024Z"/>
	<path fill="#F09719" transform="scale(1.95312 1.95312)" d="M570.026 110.241L570.639 111.127C568.949 115.074 567.062 119.031 565.753 123.122C562.279 131.429 561.557 138.079 565.006 146.55C572.438 164.806 587.127 180.196 592.911 199.348C595.113 206.64 594.454 214.17 596.02 221.454C596.087 224.741 595.846 228.103 596.018 231.369C595.751 239.308 593.342 248.336 590.296 255.682C589.522 258.4 588.283 261.494 587.932 264.269C580.296 288.648 569.928 304.138 551.506 321.638C551.485 330.432 552.939 338.67 554.089 347.329C542.132 368.293 515.175 420.125 497.55 433.397L496.582 433.181L493.065 435.654L491.745 435.866C484.448 438.936 476.144 440.339 468.432 442.016Q449.201 446.208 429.837 449.736C421.489 451.199 412.929 452.2 404.651 453.965Q408.633 473.164 412.382 492.41C413.78 499.695 414.838 507.187 416.694 514.367C417.94 520.819 419.452 527.322 420.431 533.814L419.961 534.044Q411.753 533.944 403.558 534.41C399.298 551.472 397.838 567.536 399.879 585.067C396.663 583.706 393.518 581.864 390.401 580.272L386.598 578.33C377.321 575.092 368.384 570.367 359.536 566.104Q342.366 558.622 325.56 550.354Q325.155 556.453 324.502 562.53C323.18 578.566 322.582 594.586 321.63 610.638L318.469 658.397C317.897 668.138 317.686 677.9 316.938 687.629C316.735 690.255 316.805 693.301 316.271 695.857C308.084 701.512 300.307 707.887 292.377 713.903Q262.188 736.895 232.893 761.016C226.191 766.622 219.782 772.611 213.32 778.491C210.712 780.863 207.633 784.476 204.6 786.14Q199.933 780.303 195.486 774.297Q191.039 768.291 186.819 762.123Q182.599 755.956 178.611 749.635Q174.623 743.315 170.873 736.851Q167.123 730.387 163.615 723.788Q160.108 717.189 156.849 710.464Q153.589 703.739 150.582 696.897Q147.575 690.056 144.825 683.107Q143.097 678.683 141.474 674.22Q139.852 669.756 138.335 665.255Q136.819 660.755 135.41 656.219Q134 651.684 132.699 647.116Q131.397 642.549 130.204 637.952Q129.012 633.355 127.928 628.73Q126.844 624.106 125.871 619.458Q124.897 614.81 124.033 610.139Q123.17 605.469 122.418 600.78Q121.665 596.09 121.024 591.385Q120.383 586.679 119.853 581.959Q119.324 577.239 118.906 572.508Q118.489 567.777 118.184 563.038Q117.878 558.298 117.686 553.553Q117.493 548.807 117.412 544.059Q117.332 539.31 117.364 534.561Q117.396 529.812 117.541 525.065Q117.685 520.317 117.943 515.575Q118.2 510.833 118.569 506.098Q118.938 501.363 119.42 496.638Q119.901 491.913 120.495 487.201Q121.088 482.489 121.793 477.792Q122.498 473.095 123.313 468.417Q124.129 463.738 125.056 459.08Q125.982 454.422 127.019 449.787Q128.055 445.152 129.202 440.543Q130.348 435.934 131.603 431.353Q132.858 426.773 134.221 422.223Q135.584 417.674 137.055 413.158Q138.525 408.642 140.102 404.162Q141.68 399.682 143.362 395.241Q145.045 390.8 146.833 386.4C152.787 371.485 159.935 356.614 167.591 342.486C171.391 335.472 176.246 328.525 179.409 321.235C179.473 321.089 179.533 320.941 179.595 320.794C205.022 311.053 228.476 309.117 255.303 307.274C263.31 306.724 278.813 306.235 285.836 304.09C296.101 300.282 306.751 297.408 317.075 293.711C341.037 285.13 365.226 273.162 385.546 257.726C414.273 235.905 433.094 202.791 450.822 172.081C456.89 161.57 462.228 150.34 470.024 140.964Q470.88 139.925 471.795 138.937Q472.711 137.949 473.681 137.015Q474.652 136.082 475.675 135.206Q476.698 134.33 477.77 133.515Q478.842 132.7 479.959 131.948Q481.077 131.197 482.235 130.511Q483.394 129.825 484.591 129.207Q485.788 128.589 487.018 128.042C500.917 121.755 516.523 119.902 531.592 121.794C542.58 123.174 552.975 125.942 563.881 122.684C566.413 119.235 568.185 114.146 570.026 110.241Z"/>
	<path fill="#352444" transform="scale(1.95312 1.95312)" d="M302.371 302.449C303.029 302.083 302.826 302.103 303.458 302.027C315.982 300.508 328.344 298.725 340.764 296.48C369.103 291.357 390.741 283.585 411.293 262.317C415.631 257.829 419.508 253.218 423.19 248.184C426.183 244.094 429.092 239.281 432.675 235.717C432.775 235.618 432.878 235.522 432.979 235.424L433.129 236.246L432.764 236.934C429.671 240.281 428.015 243.667 426.271 247.823L426.949 247.994Q427.699 246.562 428.493 245.153L428.79 245.139L428.593 245.466C428.662 245.58 428.745 245.686 428.8 245.807C431.19 251.169 425.652 279.503 423.693 285.901C421.97 291.526 419.336 297.257 416.792 302.557C382.972 373.038 279.775 360.456 265.705 435.863C262.459 453.263 264.211 470.284 269.984 486.967C274.25 499.294 279.988 511.615 286.71 522.793C289.898 528.094 293.19 533.406 296.67 538.52C299.777 543.084 306.062 548.459 307.5 553.748C278.998 537.407 247.875 516.749 229.812 488.546C222.751 477.52 218.067 465.753 214.637 453.178Q214.504 456.693 214.658 460.208Q214.813 463.723 215.253 467.213Q215.694 470.703 216.418 474.146Q217.142 477.589 218.144 480.961C226.548 509.722 245.247 532.052 271.308 546.388L271.038 546.701L271.717 546.877C271.471 546.832 271.219 546.812 270.98 546.742C267.429 545.701 263.024 542.949 259.827 541.062C239.687 529.178 224.07 510.219 215.294 488.617C199.973 450.903 214.156 413.051 244.426 387.647C247.446 385.112 258.266 379.163 259.301 376.725C232.992 388.149 205.864 399.168 194.503 427.859C187.068 446.633 186.553 469.351 194.636 487.962C196.663 492.63 199.173 497.126 201.524 501.64C194.235 491.744 184.224 478.564 180.061 467.029Q179.568 466.23 179.121 465.404C167.465 444.089 166.484 416.284 173.383 393.35C187.289 347.127 228.012 322.199 272.103 310.263C278.323 308.58 297.72 305.348 301.874 302.819C302.051 302.712 302.206 302.572 302.371 302.449Z"/>
	<path fill="#53406D" transform="scale(1.95312 1.95312)" d="M302.371 302.449C303.029 302.083 302.826 302.103 303.458 302.027C315.982 300.508 328.344 298.725 340.764 296.48C369.103 291.357 390.741 283.585 411.293 262.317C415.631 257.829 419.508 253.218 423.19 248.184C426.183 244.094 429.092 239.281 432.675 235.717C432.775 235.618 432.878 235.522 432.979 235.424L433.129 236.246L432.764 236.934C429.671 240.281 428.015 243.667 426.271 247.823C426.128 248.015 425.981 248.204 425.84 248.398C422.447 253.092 416.692 269.36 413.423 275.88C398.052 306.545 377.876 334.449 346.468 350.125C342.047 352.332 337.47 355.387 332.603 356.388C327.841 357.367 323.232 355.984 318.499 356.107C278.941 354.315 231.568 358.071 200.84 386.141C185.998 399.7 177.781 418.115 177.025 438.202Q176.85 442.512 177.122 446.818Q177.395 451.123 178.112 455.377C178.745 459.081 180.139 463.294 180.061 467.029Q179.568 466.23 179.121 465.404C167.465 444.089 166.484 416.284 173.383 393.35C187.289 347.127 228.012 322.199 272.103 310.263C278.323 308.58 297.72 305.348 301.874 302.819C302.051 302.712 302.206 302.572 302.371 302.449Z"/>
	<path fill="#201728" transform="scale(1.95312 1.95312)" d="M570.026 110.241L570.639 111.127C568.949 115.074 567.062 119.031 565.753 123.122C562.279 131.429 561.557 138.079 565.006 146.55C572.438 164.806 587.127 180.196 592.911 199.348C595.113 206.64 594.454 214.17 596.02 221.454C596.087 224.741 595.846 228.103 596.018 231.369C595.751 239.308 593.342 248.336 590.296 255.682C589.522 258.4 588.283 261.494 587.932 264.269C580.296 288.648 569.928 304.138 551.506 321.638C551.485 330.432 552.939 338.67 554.089 347.329C542.132 368.293 515.175 420.125 497.55 433.397L496.582 433.181L493.065 435.654L491.745 435.866C484.448 438.936 476.144 440.339 468.432 442.016Q449.201 446.208 429.837 449.736C421.489 451.199 412.929 452.2 404.651 453.965Q408.633 473.164 412.382 492.41C413.78 499.695 414.838 507.187 416.694 514.367C417.94 520.819 419.452 527.322 420.431 533.814L419.961 534.044Q411.753 533.944 403.558 534.41C399.298 551.472 397.838 567.536 399.879 585.067C396.663 583.706 393.518 581.864 390.401 580.272L386.598 578.33C377.321 575.092 368.384 570.367 359.536 566.104Q342.366 558.622 325.56 550.354Q325.155 556.453 324.502 562.53Q315.917 558.301 307.5 553.748C306.062 548.459 299.777 543.084 296.67 538.52C293.19 533.406 289.898 528.094 286.71 522.793C279.988 511.615 274.25 499.294 269.984 486.967C264.211 470.284 262.459 453.263 265.705 435.863C279.775 360.456 382.972 373.038 416.792 302.557C419.336 297.257 421.97 291.526 423.693 285.901C425.652 279.503 431.19 251.169 428.8 245.807C428.745 245.686 428.662 245.58 428.593 245.466L428.79 245.139L428.493 245.153Q427.699 246.562 426.949 247.994L426.271 247.823C428.015 243.667 429.671 240.281 432.764 236.934L433.129 236.246L432.979 235.424C432.878 235.522 432.775 235.618 432.675 235.717C429.092 239.281 426.183 244.094 423.19 248.184C419.508 253.218 415.631 257.829 411.293 262.317C390.741 283.585 369.103 291.357 340.764 296.48C328.344 298.725 315.982 300.508 303.458 302.027C302.826 302.103 303.029 302.083 302.371 302.449C296.838 302.77 291.362 303.851 285.836 304.09C296.101 300.282 306.751 297.408 317.075 293.711C341.037 285.13 365.226 273.162 385.546 257.726C414.273 235.905 433.094 202.791 450.822 172.081C456.89 161.57 462.228 150.34 470.024 140.964Q470.88 139.925 471.795 138.937Q472.711 137.949 473.681 137.015Q474.652 136.082 475.675 135.206Q476.698 134.33 477.77 133.515Q478.842 132.7 479.959 131.948Q481.077 131.197 482.235 130.511Q483.394 129.825 484.591 129.207Q485.788 128.589 487.018 128.042C500.917 121.755 516.523 119.902 531.592 121.794C542.58 123.174 552.975 125.942 563.881 122.684C566.413 119.235 568.185 114.146 570.026 110.241Z"/>
	<path fill="#E4393A" transform="scale(1.95312 1.95312)" d="M440.915 258.031L442.179 257.818C443.134 260.708 445.485 265.985 444.451 269.024C444.112 270.021 443.356 270.576 442.329 270.736C440.853 270.967 439.156 270.044 437.858 269.461C438.528 268.869 439.225 268.265 439.8 267.578C441.846 265.134 441.123 260.955 440.915 258.031Z"/>
	<path fill="#9E0244" transform="scale(1.95312 1.95312)" d="M436.262 228.346C437.58 233.416 437.703 238.619 438.929 243.662C437.33 244.389 436.517 245.836 434.782 246.151L434.146 244.562C434.756 242.253 435.233 239.502 435.181 237.11C435.155 235.922 435.264 235.761 434.348 234.944L433.129 236.246L432.979 235.424C434.052 233.067 435.053 230.635 436.262 228.346Z"/>
	<path fill="#EE635F" transform="scale(1.95312 1.95312)" d="M439.679 257.755L440.915 258.031C441.123 260.955 441.846 265.134 439.8 267.578C439.225 268.265 438.528 268.869 437.858 269.461C437.094 268.8 436.31 268.098 435.71 267.28C433.945 264.873 434.075 261.956 434.363 259.144L435.118 258.836C436.596 258.282 438.133 258.045 439.679 257.755Z"/>
	<path fill="#9E0244" transform="scale(1.95312 1.95312)" d="M434.146 244.562L434.782 246.151C436.517 245.836 437.33 244.389 438.929 243.662L439.844 247.575C440.712 250.978 441.501 254.372 442.179 257.818L440.915 258.031L439.679 257.755C437.595 256.154 436.32 255.002 435.508 252.44C434.537 252.196 434.192 251.969 433.515 251.233C432.922 249.03 433.688 246.748 434.146 244.562Z"/>
	<path fill="#DC2962" transform="scale(1.95312 1.95312)" d="M434.146 244.562L434.782 246.151C436.517 245.836 437.33 244.389 438.929 243.662L439.844 247.575C438.836 248.396 438.607 248.674 437.232 248.579C436.634 248.537 435.819 248.221 435.265 248.054C434.743 249.422 435.207 251.019 435.508 252.44C434.537 252.196 434.192 251.969 433.515 251.233C432.922 249.03 433.688 246.748 434.146 244.562Z"/>
	<path fill="#E4393A" transform="scale(1.95312 1.95312)" d="M433.129 236.246L434.348 234.944C435.264 235.761 435.155 235.922 435.181 237.11C435.233 239.502 434.756 242.253 434.146 244.562C433.688 246.748 432.922 249.03 433.515 251.233C434.192 251.969 434.537 252.196 435.508 252.44C436.32 255.002 437.595 256.154 439.679 257.755C438.133 258.045 436.596 258.282 435.118 258.836L434.363 259.144C432.324 257.827 431.484 255.413 430.46 253.305C429.597 247.62 431.355 242.377 432.764 236.934L433.129 236.246Z"/>
	<path fill="#F5775B" transform="scale(1.95312 1.95312)" d="M430.46 253.305C431.455 253.082 432.44 252.561 433.332 253.143C434.785 254.093 435.182 255.259 435.394 256.908C435.488 257.639 435.374 258.156 435.118 258.836L434.363 259.144C432.324 257.827 431.484 255.413 430.46 253.305Z"/>
	<path fill="#DC2962" transform="scale(1.95312 1.95312)" d="M451.618 196.197C461.245 179.337 467.059 160.729 481.93 147.243C492.785 137.399 500.859 137.585 514.757 138.236L534.68 139.128C515.683 141.426 499.799 152.742 488.175 167.548C482.116 175.266 476.688 184.362 472.949 193.462C472.299 193.249 471.672 193.056 471.007 192.895C463.17 191.002 458.371 191.979 451.618 196.197Z"/>
	<path fill="#690A40" transform="scale(1.95312 1.95312)" d="M292.529 492.18C304.184 495.868 315.977 499.389 327.374 503.814Q340.195 507.61 352.951 511.617L357.351 513.184Q373.524 518.271 389.337 524.386C391.325 521.209 394.501 519.546 397.574 517.556C399.794 521.671 401.644 525.84 403.452 530.143C403.933 531.765 403.859 532.756 403.558 534.41C399.298 551.472 397.838 567.536 399.879 585.067C396.663 583.706 393.518 581.864 390.401 580.272L386.598 578.33C377.321 575.092 368.384 570.367 359.536 566.104Q342.366 558.622 325.56 550.354C322.472 548.044 317.723 546.507 314.195 544.926C311.215 539.423 309.205 533.344 306.807 527.567Q299.344 510.004 292.529 492.18Z"/>
	<path fill="#3E052C" transform="scale(1.95312 1.95312)" d="M386.598 578.33C379.396 563.95 372.906 549.16 366.157 534.562C363.122 527.998 358.727 520.705 356.725 513.814L357.351 513.184Q373.524 518.271 389.337 524.386C391.325 521.209 394.501 519.546 397.574 517.556C399.794 521.671 401.644 525.84 403.452 530.143C403.933 531.765 403.859 532.756 403.558 534.41C399.298 551.472 397.838 567.536 399.879 585.067C396.663 583.706 393.518 581.864 390.401 580.272L386.598 578.33Z"/>
	<path fill="#FEFEFE" transform="scale(1.95312 1.95312)" d="M397.574 517.556C399.794 521.671 401.644 525.84 403.452 530.143C398.678 528.384 394.015 526.383 389.337 524.386C391.325 521.209 394.501 519.546 397.574 517.556Z"/>
	<path fill="#690A40" transform="scale(1.95312 1.95312)" d="M346.946 438.698C349.618 436.468 392.558 424.551 398.018 423.852L398.752 425.769L399.751 429.424C401.394 437.573 403.331 445.764 404.651 453.965Q408.633 473.164 412.382 492.41C413.78 499.695 414.838 507.187 416.694 514.367C417.94 520.819 419.452 527.322 420.431 533.814L419.961 534.044Q411.753 533.944 403.558 534.41C403.859 532.756 403.933 531.765 403.452 530.143C401.644 525.84 399.794 521.671 397.574 517.556C394.501 519.546 391.325 521.209 389.337 524.386Q373.524 518.271 357.351 513.184L352.951 511.617Q340.195 507.61 327.374 503.814C329.326 488.198 330.962 465.893 335.876 451.426C338.002 445.166 341.08 441.569 346.946 438.698Z"/>
	<path fill="#F6D0BA" transform="scale(1.95312 1.95312)" d="M362.218 457.119C369.233 466.396 375.859 476.396 381.444 486.603C387.024 496.803 391.896 507.42 397.574 517.556C394.501 519.546 391.325 521.209 389.337 524.386Q373.524 518.271 357.351 513.184L352.951 511.617Q355.789 492.33 359.168 473.131C360.071 467.966 360.51 462.037 362.218 457.119Z"/>
	<path fill="#F9A99B" transform="scale(1.95312 1.95312)" d="M346.946 438.698C352.261 444.124 358.256 450.608 362.218 457.119C360.51 462.037 360.071 467.966 359.168 473.131Q355.79 492.33 352.951 511.617Q340.195 507.61 327.374 503.814C329.326 488.198 330.962 465.893 335.876 451.426C338.002 445.166 341.08 441.569 346.946 438.698Z"/>
	<path fill="#EE635F" transform="scale(1.95312 1.95312)" d="M443.857 212.036C444.433 212.897 444.995 213.748 445.633 214.566C448.148 218.45 451.142 224.097 454.577 227.117L456.145 225.516L455.628 224.684L456.005 223.969Q458.242 223.271 460.511 222.686C461.935 221.155 463.367 219.792 464.996 218.482C465.805 221.502 465.304 224.522 466.326 227.514C467.864 231.017 469.626 233.313 472.475 235.853L470.589 236.859L471.813 238.997C472.036 239.246 472.263 239.492 472.482 239.744C486.468 255.805 474.512 278.396 478.856 297.181C481.61 309.089 488.805 319.408 496.818 328.402C502.218 334.463 509.026 340.782 517.553 341.407C529.744 342.301 542.802 329.007 551.506 321.638C551.485 330.432 552.939 338.67 554.089 347.329C542.132 368.293 515.175 420.125 497.55 433.397L496.582 433.181L493.065 435.654L491.745 435.866C484.448 438.936 476.144 440.339 468.432 442.016Q449.201 446.208 429.837 449.736C421.489 451.199 412.929 452.2 404.651 453.965C403.331 445.764 401.394 437.573 399.751 429.424L398.752 425.769L398.018 423.852C410.109 419.619 422.005 414.5 433.903 409.74C444.194 405.623 455.149 401.879 464.838 396.494C468.333 394.55 471.577 392.214 474.275 389.244C489.513 372.477 485.77 340.879 484.793 319.814C460.414 302.658 453.987 280.883 446.344 253.633C443.424 243.224 442.211 237.434 436.754 227.793C438.742 222.381 441.348 217.219 443.857 212.036Z"/>
	<path fill="#14171A" transform="scale(1.95312 1.95312)" d="M456.145 225.516C460.698 229.677 465.564 233.296 470.589 236.859L471.813 238.997C465.976 238.229 458.302 231.561 454.577 227.117L456.145 225.516Z"/>
	<path fill="#FEFEFE" transform="scale(1.95312 1.95312)" d="M464.996 218.482C465.805 221.502 465.304 224.522 466.326 227.514C467.864 231.017 469.626 233.313 472.475 235.853L470.589 236.859C465.564 233.296 460.698 229.677 456.145 225.516L455.628 224.684L456.005 223.969Q458.242 223.271 460.511 222.686C461.935 221.155 463.367 219.792 464.996 218.482Z"/>
	<path fill="#E4393A" transform="scale(1.95312 1.95312)" d="M398.752 425.769C420.508 426.502 442.087 428.814 463.768 430.599C474.504 431.482 486.02 431.332 496.582 433.181L493.065 435.654L491.745 435.866C487.077 434.366 476.862 434.965 471.337 434.577L399.751 429.424L398.752 425.769Z"/>
	<path fill="#EE635F" transform="scale(1.95312 1.95312)" d="M399.751 429.424L471.337 434.577C476.862 434.965 487.077 434.366 491.745 435.866C484.448 438.936 476.144 440.339 468.432 442.016Q449.201 446.208 429.837 449.736C421.489 451.199 412.929 452.2 404.651 453.965C403.331 445.764 401.394 437.573 399.751 429.424Z"/>
	<path fill="#F6D0BA" transform="scale(1.95312 1.95312)" d="M570.026 110.241L570.639 111.127C568.949 115.074 567.062 119.031 565.753 123.122C562.279 131.429 561.557 138.079 565.006 146.55C572.438 164.806 587.127 180.196 592.911 199.348C595.113 206.64 594.454 214.17 596.02 221.454C596.087 224.741 595.846 228.103 596.018 231.369C595.751 239.308 593.342 248.336 590.296 255.682C589.522 258.4 588.283 261.494 587.932 264.269C580.296 288.648 569.928 304.138 551.506 321.638C542.802 329.007 529.744 342.301 517.553 341.407C509.026 340.782 502.218 334.463 496.818 328.402C488.805 319.408 481.61 309.089 478.856 297.181C474.512 278.396 486.468 255.805 472.482 239.744C472.263 239.492 472.036 239.246 471.813 238.997L470.589 236.859L472.475 235.853C469.626 233.313 467.864 231.017 466.326 227.514C465.304 224.522 465.805 221.502 464.996 218.482C463.367 219.792 461.935 221.155 460.511 222.686Q458.242 223.271 456.005 223.969L455.628 224.684L456.145 225.516L454.577 227.117C451.142 224.097 448.148 218.45 445.633 214.566C444.995 213.748 444.433 212.897 443.857 212.036C445.555 208.24 447.11 203.669 450.817 201.371C455.209 198.65 461.164 200.228 465.851 201.35Q473.686 203.497 481.152 206.699C488.04 209.275 496.673 213.945 503.946 214.033C503.431 212.522 502.939 210.929 502.204 209.508C497.454 200.318 481.883 196.624 472.949 193.462C476.688 184.362 482.116 175.266 488.175 167.548C499.799 152.742 515.683 141.426 534.68 139.128C539.409 138.732 544.329 138.408 548.898 137.04C556.618 134.728 560.311 129.448 563.881 122.684C566.413 119.235 568.185 114.146 570.026 110.241Z"/>
	<path fill="#F5775B" transform="scale(1.95312 1.95312)" d="M507.998 312.356C514.043 313.491 519.113 313.404 525.242 312.886C522.972 314.786 519.889 316.559 516.872 316.695C513.106 316.864 510.621 314.759 507.998 312.356Z"/>
	<path fill="#F9A99B" transform="scale(1.95312 1.95312)" d="M503.18 268.159C504.038 267.553 504.98 266.862 505.995 266.554C509.54 265.477 522.052 266.153 525.998 266.859C527.773 267.177 529.023 267.673 530.436 268.779C530.977 270.087 530.923 270.126 530.542 271.502C528.473 273.436 526.08 272.485 523.662 273.289C520.029 274.496 518.933 279.827 514.535 279.679C511.703 277.732 510.999 274.35 507.717 272.809C506.338 273.381 505.431 273.53 503.937 273.586C502.567 272.96 502.484 273.009 501.824 271.674C502.044 270.138 502.308 269.442 503.18 268.159Z"/>
	<path fill="#CB110B" transform="scale(1.95312 1.95312)" d="M521.932 268.665C523.71 268.454 525.258 268.196 527.011 268.65C527.984 269.657 527.845 269.758 527.908 271.181C526.395 271.221 524.583 271.429 523.103 271.107C522.02 270.872 521.985 270.65 521.472 269.757L521.932 268.665Z"/>
	<path fill="#F8A172" transform="scale(1.95312 1.95312)" d="M507.717 272.809C506.338 273.381 505.431 273.53 503.937 273.586C502.567 272.96 502.484 273.009 501.824 271.674C502.044 270.138 502.308 269.442 503.18 268.159L504.241 269.617C506.176 269.31 508.068 268.818 509.971 268.357C510.432 269.103 510.411 268.771 510.21 269.643C509.905 270.969 508.696 271.769 507.796 272.694C507.763 272.727 507.743 272.771 507.717 272.809Z"/>
	<path fill="#FEFEFE" transform="scale(1.95312 1.95312)" d="M541.053 220.46C542.574 219.908 542.642 219.944 544.188 220.519C544.243 220.539 544.293 220.57 544.345 220.596C542.427 224.073 540.314 227.543 538.72 231.179C541.335 227.764 544.758 221.579 549.241 220.946C549.964 225.663 550.894 229.484 554.973 232.492C556.923 233.929 559.123 235.078 561.264 236.202C556.227 237.869 541.039 237.323 534.307 238.126C535.398 231.592 537.68 226.145 541.053 220.46Z"/>
	<path fill="#E4393A" transform="scale(1.95312 1.95312)" d="M481.152 206.699C488.04 209.275 496.673 213.945 503.946 214.033L504.125 214.776C504.771 217.406 505.992 219.873 506.651 222.515C508.803 231.146 509.204 240.801 507.942 249.588C507.531 245.808 507.371 241.726 506.369 238.066C504.892 233.331 502.628 228.74 500.683 224.178C498.106 223.208 495.806 220.882 493.212 220.34L493.018 220.039C492.998 219.065 492.802 218.203 492.358 217.324C490.07 212.788 479.592 211.854 475.079 210.895L475.055 210.363C476.986 207.795 477.945 207.22 481.152 206.699Z"/>
	<path fill="#FEFEFE" transform="scale(1.95312 1.95312)" d="M481.111 217.818L481.304 217.153C481.573 217.251 481.84 217.357 482.111 217.447C483.377 217.867 484.343 217.548 485.595 217.286C486.178 217.165 486.77 217.066 487.355 216.953C489.193 218.052 491.011 219.278 493.018 220.039L493.212 220.34C495.806 220.882 498.106 223.208 500.683 224.178C502.628 228.74 504.892 233.331 506.369 238.066C497.555 238.121 486.762 238.212 478.23 236.083C480.566 235.319 482.73 234.498 484.518 232.741C487.865 229.453 487.974 224.905 488.008 220.532C485.874 219.392 483.341 218.831 481.111 217.818Z"/>
	<path fill="#14171A" transform="scale(1.95312 1.95312)" d="M481.111 217.818L481.304 217.153C481.573 217.251 481.84 217.357 482.111 217.447C483.377 217.867 484.343 217.548 485.595 217.286C486.178 217.165 486.77 217.066 487.355 216.953C489.193 218.052 491.011 219.278 493.018 220.039L493.212 220.34C496.222 225.206 499.788 229.637 502.378 234.762C498.098 229.539 493.894 224.047 488.008 220.532C485.874 219.392 483.341 218.831 481.111 217.818Z"/>
	<defs>
		<linearGradient id="gradient_1" gradientUnits="userSpaceOnUse" x1="483.17776" y1="219.3593" x2="475.99573" y2="235.80803">
			<stop offset="0" stop-color="#0089AE"/>
			<stop offset="1" stop-color="#2CC3E3"/>
		</linearGradient>
	</defs>
	<path fill="url(#gradient_1)" transform="scale(1.95312 1.95312)" d="M464.996 218.482C469.502 218.157 472.808 216.747 477.516 217.419L481.111 217.818C483.341 218.831 485.874 219.392 488.008 220.532C487.974 224.905 487.865 229.453 484.518 232.741C482.73 234.498 480.566 235.319 478.23 236.083L472.475 235.853C469.626 233.313 467.864 231.017 466.326 227.514C465.304 224.522 465.805 221.502 464.996 218.482Z"/>
	<path fill="#14171A" transform="scale(1.95312 1.95312)" d="M476.968 218.028C479.072 219.696 481.248 221.743 481.677 224.544C481.889 225.931 481.621 227.435 480.826 228.606C480.038 229.768 478.734 230.349 477.527 230.961C476.064 230.281 475.044 229.705 473.898 228.559C473.341 227.159 473.39 226.542 473.616 225.108C474.166 223.561 474.367 222.141 474.544 220.512C474.58 220.278 474.587 220.038 474.652 219.81C475.032 218.468 475.768 218.501 476.968 218.028Z"/>
	<path fill="#2583B8" transform="scale(1.95312 1.95312)" d="M464.996 218.482C469.502 218.157 472.808 216.747 477.516 217.419L476.968 218.028C475.768 218.501 475.032 218.468 474.652 219.81C474.587 220.038 474.58 220.278 474.544 220.512C474.367 222.141 474.166 223.561 473.616 225.108C473.39 226.542 473.341 227.159 473.898 228.559C475.044 229.705 476.064 230.281 477.527 230.961C474.001 231.147 469.594 228.843 466.326 227.514C465.304 224.522 465.805 221.502 464.996 218.482Z"/>
	<path fill="#FEFEFE" transform="scale(1.95312 1.95312)" d="M473.616 225.108C472.73 225.09 471.916 224.968 471.041 224.837C470.007 224.049 469.906 223.981 469.496 222.756C469.883 221.413 470.103 221.245 471.138 220.279C472.881 219.842 472.917 219.781 474.544 220.512C474.367 222.141 474.166 223.561 473.616 225.108Z"/>
	<defs>
		<linearGradient id="gradient_2" gradientUnits="userSpaceOnUse" x1="563.4646" y1="212.09309" x2="552.51184" y2="193.65984">
			<stop offset="0" stop-color="#0A0913"/>
			<stop offset="1" stop-color="#180D21"/>
		</linearGradient>
	</defs>
	<path fill="url(#gradient_2)" transform="scale(1.95312 1.95312)" d="M535.841 212.116C534.863 212.45 534.198 212.7 533.16 212.566C532.33 211.784 531.997 211.535 532.094 210.273C532.337 207.09 536.057 202.957 538.53 201.196C545.657 196.123 563.638 189.333 572.43 191.081C578.922 192.372 587.208 197.36 590.921 202.886L590.409 202.715C586.278 201.291 582.45 198.629 578.082 198.052C569.146 196.871 545.379 207.43 537.227 211.379C536.756 211.608 536.296 211.857 535.841 212.116Z"/>
	<path fill="#9E0244" transform="scale(1.95312 1.95312)" d="M510.764 284.533L516.89 287.056C519.431 286.185 521.975 285.2 524.598 284.61C532.443 287.559 537.935 294.77 546.235 295.941L546.455 296.316L543.794 297.901C538.107 298.07 531 299.12 525.445 298.173C521.07 297.919 514.144 296.954 510.018 298.386C507.845 299.496 494.49 298.009 491.048 297.862L487.952 295.781C496.505 294.118 502.723 287.732 510.764 284.533Z"/>
	<path fill="#E4393A" transform="scale(1.95312 1.95312)" d="M510.018 298.386C514.144 296.954 521.07 297.919 525.445 298.173C531 299.12 538.107 298.07 543.794 297.901C537.997 303.644 532.456 308.92 525.242 312.886C519.113 313.404 514.043 313.491 507.998 312.356C501.221 308.753 496.27 303.346 491.048 297.862C494.49 298.009 507.845 299.496 510.018 298.386Z"/>
	<path fill="#FEFEFE" transform="scale(1.95312 1.95312)" d="M510.018 298.386C514.144 296.954 521.07 297.919 525.445 298.173C523.153 299.453 520.444 300.037 517.935 300.778C515.311 300.025 512.554 299.393 510.018 298.386Z"/>
	<path fill="#F9A99B" transform="scale(1.95312 1.95312)" d="M535.841 212.116C536.296 211.857 536.756 211.608 537.227 211.379C545.379 207.43 569.146 196.871 578.082 198.052C582.45 198.629 586.278 201.291 590.409 202.715L590.921 202.886C593.172 206.573 593.602 209.837 593.386 214.093C591.209 215.216 588.926 216.456 586.501 216.922C585.179 217.176 584.554 217.138 583.419 216.444C582.934 214.662 584.212 212.825 584.611 211.067L583.967 210.727L582.301 211.672C581.785 212.515 581.207 212.946 580.332 213.409C579.21 214.003 578.053 214.535 576.834 214.154C575.888 212.249 577.246 210.233 576.588 208.22C575.218 208.009 574.986 208.491 573.885 209.214C573.339 210.51 573.018 211.674 571.731 212.41L570.883 212.116L570.588 211.24C570.338 210.506 570.063 209.867 569.669 209.195C562.609 209.973 551.44 210.892 546.734 216.886C545.928 217.913 545.406 219.047 544.91 220.244L544.345 220.596C544.293 220.57 544.243 220.539 544.188 220.519C542.642 219.944 542.574 219.908 541.053 220.46L540.964 220.329C541.009 220.039 541.06 219.751 541.1 219.46C541.653 215.449 544.497 213.42 545.711 209.753L545.283 209.296C543.284 210.033 538.934 211.141 537.573 212.681C537.457 212.812 537.381 212.973 537.286 213.118L535.841 212.116Z"/>
	<path fill="#E4393A" transform="scale(1.95312 1.95312)" d="M566.819 206.06C568.68 205.935 569.706 205.475 571.188 206.829C572.16 207.716 572.734 208.485 573.885 209.214C573.339 210.51 573.018 211.674 571.731 212.41L570.883 212.116L570.588 211.24C570.338 210.506 570.063 209.867 569.669 209.195C562.609 209.973 551.44 210.892 546.734 216.886C545.928 217.913 545.406 219.047 544.91 220.244C544.128 219.868 543.34 219.541 542.892 218.749C542.263 217.635 542.165 216.638 542.781 215.508C546.284 209.081 560.576 207.649 566.819 206.06Z"/>
	<path fill="#DC2962" transform="scale(1.95312 1.95312)" d="M443.857 212.036C445.555 208.24 447.11 203.669 450.817 201.371C455.209 198.65 461.164 200.228 465.851 201.35Q473.686 203.497 481.152 206.699C477.945 207.22 476.986 207.795 475.055 210.363L475.079 210.895C479.592 211.854 490.07 212.788 492.358 217.324C492.802 218.203 492.998 219.065 493.018 220.039C491.011 219.278 489.193 218.052 487.355 216.953C486.77 217.066 486.178 217.165 485.595 217.286C484.343 217.548 483.377 217.867 482.111 217.447C481.84 217.357 481.573 217.251 481.304 217.153L481.111 217.818L477.516 217.419C472.808 216.747 469.502 218.157 464.996 218.482C463.367 219.792 461.935 221.155 460.511 222.686Q458.242 223.271 456.005 223.969L455.628 224.684L456.145 225.516L454.577 227.117C451.142 224.097 448.148 218.45 445.633 214.566C444.995 213.748 444.433 212.897 443.857 212.036Z"/>
	<path fill="#E89090" transform="scale(1.95312 1.95312)" d="M465.851 201.35Q473.686 203.497 481.152 206.699C477.945 207.22 476.986 207.795 475.055 210.363C475.278 209.121 475.421 208.199 475.263 206.929C473.697 206.804 471.556 208.366 470.009 209.001C469.333 208.876 468.67 208.916 468.159 208.404C466.447 206.688 465.997 203.659 465.851 201.35Z"/>
	<path fill="#201728" transform="scale(1.95312 1.95312)" d="M451.245 207.943C453.313 210.065 456.602 213.826 459.67 214.238C460.515 214.352 460.663 214.011 461.296 213.551C461.967 211.833 461.445 210.401 461.039 208.687L466.901 211.605C469.66 211.136 472.289 210.971 475.079 210.895C479.592 211.854 490.07 212.788 492.358 217.324C492.802 218.203 492.998 219.065 493.018 220.039C491.011 219.278 489.193 218.052 487.355 216.953C486.77 217.066 486.178 217.165 485.595 217.286C484.343 217.548 483.377 217.867 482.111 217.447C481.84 217.357 481.573 217.251 481.304 217.153L481.111 217.818L477.516 217.419C472.808 216.747 469.502 218.157 464.996 218.482C463.367 219.792 461.935 221.155 460.511 222.686Q458.242 223.271 456.005 223.969L455.628 224.684L456.145 225.516L454.577 227.117C451.142 224.097 448.148 218.45 445.633 214.566C448.693 214.345 452.114 215.366 455.121 215.981C453.927 213.259 452.557 210.609 451.245 207.943Z"/>
	<defs>
		<linearGradient id="gradient_3" gradientUnits="userSpaceOnUse" x1="572.91351" y1="234.11888" x2="566.26544" y2="209.46252">
			<stop offset="0" stop-color="#060702"/>
			<stop offset="1" stop-color="#1E1023"/>
		</linearGradient>
	</defs>
	<path fill="url(#gradient_3)" transform="scale(1.95312 1.95312)" d="M573.885 209.214C574.986 208.491 575.218 208.009 576.588 208.22C577.246 210.233 575.888 212.249 576.834 214.154C578.053 214.535 579.21 214.003 580.332 213.409C581.207 212.946 581.785 212.515 582.301 211.672L583.967 210.727L584.611 211.067C584.212 212.825 582.934 214.662 583.419 216.444C584.554 217.138 585.179 217.176 586.501 216.922C588.926 216.456 591.209 215.216 593.386 214.093C591.976 218.728 576.888 233.227 572.318 235.61C570.017 236.81 566.244 238.161 563.665 237.19C563.485 237.122 563.32 237.018 563.147 236.932C562.524 236.561 561.954 236.409 561.264 236.202C559.123 235.078 556.923 233.929 554.973 232.492C550.894 229.484 549.964 225.663 549.241 220.946C544.758 221.579 541.335 227.764 538.72 231.179C540.314 227.543 542.427 224.073 544.345 220.596L544.91 220.244C545.406 219.047 545.928 217.913 546.734 216.886C551.44 210.892 562.609 209.973 569.669 209.195C570.063 209.867 570.338 210.506 570.588 211.24L570.883 212.116L571.731 212.41C573.018 211.674 573.339 210.51 573.885 209.214Z"/>
	<path fill="#FEFEFE" transform="scale(1.95312 1.95312)" d="M571.447 218.97C573.558 219.699 576.553 220.322 577.656 222.47C578.291 223.708 578.154 225.004 577.689 226.265C576.439 229.657 569.137 235.145 565.706 236.238C564.937 236.483 564.145 236.533 563.346 236.584C563.84 235.375 564.883 234.523 565.766 233.587C570.363 228.715 571.588 225.635 571.447 218.97Z"/>
	<path fill="#2583B8" transform="scale(1.95312 1.95312)" d="M563.418 221.467C563.991 221.069 563.637 221.356 564.354 220.47C564.159 219.667 563.952 218.905 563.676 218.125C563.596 217.897 563.51 217.671 563.428 217.444C566.233 217.431 568.802 218.102 571.447 218.97C571.588 225.635 570.363 228.715 565.766 233.587C564.883 234.523 563.84 235.375 563.346 236.584L563.147 236.932C562.524 236.561 561.954 236.409 561.264 236.202C559.123 235.078 556.923 233.929 554.973 232.492C550.894 229.484 549.964 225.663 549.241 220.946C551.95 219.739 556.47 216.988 559.454 218.121C560.23 218.416 560.649 220.11 560.973 220.873C561.849 221.176 562.486 221.362 563.418 221.467Z"/>
	<path fill="#14171A" transform="scale(1.95312 1.95312)" d="M560.973 220.873C561.849 221.176 562.486 221.362 563.418 221.467C562.681 221.929 562.969 221.621 562.555 222.39C562.955 222.804 563.419 223.254 563.74 223.731C564.395 224.703 564.568 225.975 564.258 227.1C563.868 228.516 562.625 229.216 561.471 229.943C560.429 229.827 560.797 230.032 560.043 229.3C558.788 228.081 556.981 225.048 556.924 223.359C559.042 222.753 559.42 222.455 560.973 220.873Z"/>
	<path fill="#DC2962" transform="scale(1.95312 1.95312)" d="M554.089 347.329C557.553 363.151 562.422 381.71 576.945 390.992C578.306 391.862 579.721 392.613 581.175 393.316C584.312 394.723 587.056 396.073 590.592 395.66C594.587 397.451 599.045 398.191 603.316 399.059C609.877 401.113 619.412 403.638 626.282 403.22L626.575 403.805L659.031 408.353C666.362 409.381 673.928 410.158 681.082 412.097C690.811 419.621 698.771 426.301 703.989 437.746C707.616 446.298 707.177 462.362 707.713 472.038C714.458 466.907 721.703 462.243 728.162 456.781C729.22 474.041 730.141 491.393 730.693 508.676C724.192 513.877 714.841 520.962 709.31 526.868C710.278 548.64 709.039 570.693 709.032 592.5Q708.848 644.314 713.501 695.918C713.876 703.797 714.414 711.937 716.676 719.538C721.143 734.546 732.131 748.608 737.473 764.969C744.043 785.091 749.545 805.99 754.832 826.494C756.671 833.624 758.156 840.897 760.134 847.982C763.98 866.759 768.743 885.423 773.131 904.083C776.25 917.345 778.991 930.7 782.068 943.976L787.559 967.641C788.933 973.392 790.627 979.25 791.421 985.104C793.166 997.984 791.964 1011.07 792.764 1024L766.481 1024L759.007 1024L692.465 1024L589.917 1024L533.61 1024L525.828 1024L481.74 1024L463.47 1024L416.008 1024L398.949 1024L354.773 1024L263.994 1024L245.972 1024L221.996 1024C222.621 1011.97 223.39 999.925 225.416 988.034C228.868 967.764 234.664 947.814 238.918 927.679C241.986 918.379 243.724 908.164 246.264 898.651Q253.495 872.073 261.387 845.684Q241.476 828.234 223.702 808.612C217.19 801.368 211.318 793.491 204.623 786.425L204.6 786.14C207.633 784.476 210.712 780.863 213.32 778.491C219.782 772.611 226.191 766.622 232.893 761.016Q262.188 736.895 292.377 713.903C300.307 707.887 308.084 701.512 316.271 695.857C316.805 693.301 316.735 690.255 316.938 687.629C317.686 677.9 317.897 668.138 318.469 658.397L321.63 610.638C322.582 594.586 323.18 578.566 324.502 562.53Q325.155 556.453 325.56 550.354Q342.366 558.622 359.536 566.104C368.384 570.367 377.321 575.092 386.598 578.33L390.401 580.272C393.518 581.864 396.663 583.706 399.879 585.067C397.838 567.536 399.298 551.472 403.558 534.41Q411.753 533.944 419.961 534.044L420.431 533.814C419.452 527.322 417.94 520.819 416.694 514.367C414.838 507.187 413.78 499.695 412.382 492.41Q408.633 473.164 404.651 453.965C412.929 452.2 421.489 451.199 429.837 449.736Q449.201 446.208 468.432 442.016C476.144 440.339 484.448 438.936 491.745 435.866L493.065 435.654L496.582 433.181L497.55 433.397C515.175 420.125 542.132 368.293 554.089 347.329Z"/>
	<path fill="#9E0244" transform="scale(1.95312 1.95312)" d="M463.47 1024C461.345 1019.52 441.768 979.729 441.782 979.641L442.025 979.97C446.902 986.458 452.982 992.159 458.488 998.123C466.35 1006.64 473.948 1015.42 481.74 1024L463.47 1024Z"/>
	<path fill="#9E0244" transform="scale(1.95312 1.95312)" d="M461.143 897.015C487.538 907.516 514.516 916.798 541.293 926.282C550.658 929.599 570.479 934.767 577.699 939.922C575.223 947.778 571.197 957.832 567.378 965.178C558.085 960.095 549.441 954.001 540.561 948.254Q518.083 933.972 495.968 919.134C484.531 911.489 472.514 904.733 461.143 897.015Z"/>
	<path fill="#9E0244" transform="scale(1.95312 1.95312)" d="M525.828 1024Q494.866 980.499 464.613 936.502C459.636 929.375 454.449 922.182 449.18 915.264C447.032 912.446 444.454 909.938 442.593 906.917L443.119 906.776C455.651 918.324 469.35 928.763 482.647 939.413L552.318 994.218C546.323 1004.18 540.333 1014.51 533.61 1024L525.828 1024Z"/>
	<path fill="#2583B8" transform="scale(1.95312 1.95312)" d="M597.179 887.313L597.627 886.626C626.694 904.191 655.311 922.666 684 940.851C684.44 947.795 685.583 954.673 686.244 961.599C689.341 982.243 690.621 1003.21 692.465 1024L589.917 1024L533.61 1024C540.333 1014.51 546.323 1004.18 552.318 994.218C557.571 984.645 562.791 975.092 567.378 965.178C571.197 957.832 575.223 947.778 577.699 939.922Q584.633 923.494 590.25 906.57C592.735 900.414 593.53 892.904 597.179 887.313Z"/>
	<path fill="#173862" transform="scale(1.95312 1.95312)" d="M597.179 887.313L597.627 886.626C626.694 904.191 655.311 922.666 684 940.851C684.44 947.795 685.583 954.673 686.244 961.599C681.297 960.156 667.742 951.397 662.443 948.378C639.343 935.215 616.121 922.126 593.339 908.422C590.321 919.534 585.734 930.897 581.072 941.41C589.159 944.477 597.905 946.535 606.204 949.02Q625.468 954.915 644.507 961.499C652.594 964.252 660.952 966.813 668.782 970.231C636.299 971.852 602.77 972.149 570.602 966.736C568.239 971.309 563.107 983.07 559.824 986.473C558.236 989.519 556.496 992.429 554.681 995.344C565.712 1004.42 578.435 1016.04 589.917 1024L533.61 1024C540.333 1014.51 546.323 1004.18 552.318 994.218C557.571 984.645 562.791 975.092 567.378 965.178C571.197 957.832 575.223 947.778 577.699 939.922Q584.633 923.494 590.25 906.57C592.735 900.414 593.53 892.904 597.179 887.313Z"/>
	<path fill="#E1CFEE" transform="scale(1.95312 1.95312)" d="M442.091 765.431C449.65 767.727 456.993 771.822 464.093 775.268C466.661 776.372 469.532 777.372 471.922 778.798C472.948 779.544 473.949 780.297 475.038 780.951C490.066 787.155 504.779 794.214 519.676 800.731C566.576 821.248 613.399 841.902 661.322 859.94C665.173 866.763 673.881 889.148 675.329 896.24C679.319 910.387 683.56 926.066 684 940.851C655.311 922.666 626.694 904.191 597.627 886.626L597.179 887.313C593.53 892.904 592.735 900.414 590.25 906.57C583.481 902.895 577.146 897.881 570.895 893.392C558.407 884.426 546.136 875.197 533.747 866.099C511.24 849.571 487.94 834.072 465.782 817.077L463.416 820.088C458.621 817.055 453.725 814.303 448.56 811.953C442.234 808.929 420.761 799.889 417.078 796.74Q423.865 789.498 430.42 782.046C434.167 776.404 437.938 770.785 442.091 765.431Z"/>
	<path fill="#A55C8D" transform="scale(1.95312 1.95312)" d="M442.091 765.431C449.65 767.727 456.993 771.822 464.093 775.268C466.661 776.372 469.532 777.372 471.922 778.798C468.593 782.225 456.413 794.726 452.015 794.609C451.25 794.589 450.486 794.291 449.74 794.153C449.662 794.138 449.581 794.142 449.501 794.136C445.231 792.865 434.851 784.772 430.42 782.046C434.167 776.404 437.938 770.785 442.091 765.431Z"/>
	<path fill="#352444" transform="scale(1.95312 1.95312)" d="M430.42 782.046C434.851 784.772 445.231 792.865 449.501 794.136C457.205 799.103 464.841 804.243 472.659 809.023C469.825 811.162 467.707 814.129 465.782 817.077L463.416 820.088C458.621 817.055 453.725 814.303 448.56 811.953C442.234 808.929 420.761 799.889 417.078 796.74Q423.865 789.498 430.42 782.046Z"/>
	<path fill="#9E0244" transform="scale(1.95312 1.95312)" d="M472.659 809.023Q519.268 837.687 565.48 866.989Q576.134 873.709 586.972 880.129C590.472 882.23 594.407 884.164 597.627 886.626L597.179 887.313C593.53 892.904 592.735 900.414 590.25 906.57C583.481 902.895 577.146 897.881 570.895 893.392C558.407 884.426 546.136 875.197 533.747 866.099C511.24 849.571 487.94 834.072 465.782 817.077C467.707 814.129 469.825 811.162 472.659 809.023Z"/>
	<path fill="#173862" transform="scale(1.95312 1.95312)" d="M417.078 796.74C420.761 799.889 442.234 808.929 448.56 811.953C453.725 814.303 458.621 817.055 463.416 820.088C432.143 869.102 419.295 925.58 416.517 983.182C415.862 996.775 416.001 1010.4 416.008 1024L398.949 1024L354.773 1024C351.598 986.698 348.569 948.274 354.394 911.108C363.404 867.666 387.819 829.398 417.078 796.74Z"/>
	<path fill="#115A8C" transform="scale(1.95312 1.95312)" d="M448.56 811.953C453.725 814.303 458.621 817.055 463.416 820.088C432.143 869.102 419.295 925.58 416.517 983.182C415.862 996.775 416.001 1010.4 416.008 1024L398.949 1024C398.918 1011.01 397.131 997.887 396.937 984.827C396.415 949.696 397.568 915.298 409.364 881.836C411.549 875.638 414.398 869.633 417.027 863.614C425.07 845.201 435.546 827.314 448.56 811.953Z"/>
	<path fill="#9997E4" transform="scale(1.95312 1.95312)" d="M487.479 709.522Q527.838 709.198 568.198 709.389C581.147 709.428 595.928 708.642 608.537 709.622C606.736 715.189 605.081 720.867 603.085 726.362C599.942 737.26 594.234 751.48 600.377 762.327C602.631 766.308 606.005 769.755 608.779 773.384C612.75 778.579 616.538 783.952 620.253 789.333C630.113 803.613 638.834 818.514 647.327 833.632C652.164 842.242 657.191 850.967 661.322 859.94C613.399 841.902 566.576 821.248 519.676 800.731C504.779 794.214 490.066 787.155 475.038 780.951C473.949 780.297 472.948 779.544 471.922 778.798C469.532 777.372 466.661 776.372 464.093 775.268C456.993 771.822 449.65 767.727 442.091 765.431C444.575 761.915 447.052 758.373 449.056 754.554C456.578 740.218 450.045 724.037 445.584 709.623C457.473 709.765 469.364 709.493 481.255 709.626L487.479 709.522Z"/>
	<path fill="#352444" transform="scale(1.95312 1.95312)" d="M481.255 709.626L487.479 709.522C493.311 723.674 490.317 750.779 484.509 764.838C482.139 770.575 478.8 776.019 475.038 780.951C473.949 780.297 472.948 779.544 471.922 778.798C469.532 777.372 466.661 776.372 464.093 775.268C456.993 771.822 449.65 767.727 442.091 765.431C444.575 761.915 447.052 758.373 449.056 754.554C456.578 740.218 450.045 724.037 445.584 709.623C457.473 709.765 469.364 709.493 481.255 709.626Z"/>
	<path fill="#115A8C" transform="scale(1.95312 1.95312)" d="M481.255 709.626L487.479 709.522C493.311 723.674 490.317 750.779 484.509 764.838C482.139 770.575 478.8 776.019 475.038 780.951C473.949 780.297 472.948 779.544 471.922 778.798C469.532 777.372 466.661 776.372 464.093 775.268C475.154 749.266 475.043 737.422 468.455 709.973C472.723 709.925 476.994 709.922 481.255 709.626Z"/>
	<path fill="#DC2962" transform="scale(1.95312 1.95312)" d="M665.879 565.364C679.634 551.908 694.633 539.314 709.31 526.868C710.278 548.64 709.039 570.693 709.032 592.5Q708.848 644.314 713.501 695.918C713.876 703.797 714.414 711.937 716.676 719.538C721.143 734.546 732.131 748.608 737.473 764.969C744.043 785.091 749.545 805.99 754.832 826.494C756.671 833.624 758.156 840.897 760.134 847.982C763.98 866.759 768.743 885.423 773.131 904.083C776.25 917.345 778.991 930.7 782.068 943.976L787.559 967.641C788.933 973.392 790.627 979.25 791.421 985.104C793.166 997.984 791.964 1011.07 792.764 1024L766.481 1024L759.007 1024L692.465 1024C690.621 1003.21 689.341 982.243 686.244 961.599C685.583 954.673 684.44 947.795 684 940.851C683.56 926.066 679.319 910.387 675.329 896.24C673.881 889.148 665.173 866.763 661.322 859.94C657.191 850.967 652.164 842.242 647.327 833.632C638.834 818.514 630.113 803.613 620.253 789.333C616.538 783.952 612.75 778.579 608.779 773.384C606.005 769.755 602.631 766.308 600.377 762.327C594.234 751.48 599.942 737.26 603.085 726.362C611.31 724.023 620.117 722.824 628.504 721.077Q644.859 717.697 660.758 712.585L649.148 630.075L646.096 608.116C645.64 604.791 645.523 601.263 644.678 598.021C644.416 597.014 644.606 597.139 643.65 596.566C644.156 593.401 644.561 590.285 644.795 587.087C650.783 579.876 657.671 573.366 664.421 566.876L665.879 565.364Z"/>
	<path fill="#F6B520" transform="scale(1.95312 1.95312)" d="M603.085 726.362C611.31 724.023 620.117 722.824 628.504 721.077Q644.859 717.697 660.758 712.585C663.151 730.586 660.242 748.068 662.604 765.612C664.071 776.511 667.042 787.792 671.032 798.035C674.564 807.101 679.387 815.667 683.88 824.282C693.042 841.847 702.772 859.167 711.271 877.068C699.009 882.784 687.712 890.981 675.329 896.24C673.881 889.148 665.173 866.763 661.322 859.94C657.191 850.967 652.164 842.242 647.327 833.632C638.834 818.514 630.113 803.613 620.253 789.333C616.538 783.952 612.75 778.579 608.779 773.384C606.005 769.755 602.631 766.308 600.377 762.327C594.234 751.48 599.942 737.26 603.085 726.362Z"/>
	<path fill="#E89090" transform="scale(1.95312 1.95312)" d="M711.271 877.068C719.98 893.007 762.27 976.33 763.998 988.836C764.787 994.544 761.423 1004.08 760.443 1010.03Q759.365 1016.98 759.007 1024L692.465 1024C690.621 1003.21 689.341 982.243 686.244 961.599C685.583 954.673 684.44 947.795 684 940.851C683.56 926.066 679.319 910.387 675.329 896.24C687.712 890.981 699.009 882.784 711.271 877.068Z"/>
	<path fill="#F6D0BA" transform="scale(1.95312 1.95312)" d="M665.879 565.364C679.634 551.908 694.633 539.314 709.31 526.868C710.278 548.64 709.039 570.693 709.032 592.5Q708.848 644.314 713.501 695.918C713.876 703.797 714.414 711.937 716.676 719.538C721.143 734.546 732.131 748.608 737.473 764.969C744.043 785.091 749.545 805.99 754.832 826.494C756.671 833.624 758.156 840.897 760.134 847.982C763.98 866.759 768.743 885.423 773.131 904.083C776.25 917.345 778.991 930.7 782.068 943.976L787.559 967.641C788.933 973.392 790.627 979.25 791.421 985.104C793.166 997.984 791.964 1011.07 792.764 1024L766.481 1024C766.259 1009.86 771.979 994.817 770.342 980.942C768.493 965.275 760.651 949.976 754.79 935.429Q735.707 887.877 715.207 840.919L701.868 810.781C698.357 802.908 694.517 795.035 692.092 786.746C687.009 769.373 684.232 744.659 681.569 726.2Q670.562 646.8 664.421 566.876L665.879 565.364Z"/>
	<path fill="#DC2962" transform="scale(1.95312 1.95312)" d="M325.56 550.354Q342.366 558.622 359.536 566.104C368.384 570.367 377.321 575.092 386.598 578.33L390.401 580.272C393.518 581.864 396.663 583.706 399.879 585.067C401.727 599.04 405.592 611.342 412.269 623.806C415.144 629.173 418.525 634.336 420.972 639.918C426.011 651.41 429.967 663.502 434.199 675.322C438.2 686.495 442.851 698.102 445.584 709.623C450.045 724.037 456.578 740.218 449.056 754.554C447.052 758.373 444.575 761.915 442.091 765.431C437.938 770.785 434.167 776.404 430.42 782.046Q423.865 789.498 417.078 796.74C387.819 829.398 363.404 867.666 354.394 911.108C348.569 948.274 351.598 986.698 354.773 1024L263.994 1024L245.972 1024L221.996 1024C222.621 1011.97 223.39 999.925 225.416 988.034C228.868 967.764 234.664 947.814 238.918 927.679C241.986 918.379 243.724 908.164 246.264 898.651Q253.495 872.073 261.387 845.684Q241.476 828.234 223.702 808.612C217.19 801.368 211.318 793.491 204.623 786.425L204.6 786.14C207.633 784.476 210.712 780.863 213.32 778.491C219.782 772.611 226.191 766.622 232.893 761.016Q262.188 736.895 292.377 713.903C300.307 707.887 308.084 701.512 316.271 695.857C316.805 693.301 316.735 690.255 316.938 687.629C317.686 677.9 317.897 668.138 318.469 658.397L321.63 610.638C322.582 594.586 323.18 578.566 324.502 562.53Q325.155 556.453 325.56 550.354Z"/>
	<path fill="#DC698B" transform="scale(1.95312 1.95312)" d="M264.024 1023.4L263.994 1024L245.972 1024L245.843 1023.49Q254.934 1023.64 264.024 1023.4Z"/>
	<path fill="#E89090" transform="scale(1.95312 1.95312)" d="M308.368 886.611C314.298 889.048 320.052 892.932 325.555 896.239C335.565 899.877 344.569 906.847 354.394 911.108C348.569 948.274 351.598 986.698 354.773 1024L263.994 1024L264.024 1023.4C262.787 1015.64 259.435 1008.52 257.534 1000.95C256.67 997.518 256.881 994.582 257.724 991.162C260.856 978.465 267.849 965.731 273.464 953.967C281.212 937.733 288.746 921.331 298.074 905.924Q302.985 896.142 308.368 886.611Z"/>
	<path fill="#EDC578" transform="scale(1.95312 1.95312)" d="M308.368 886.611C314.298 889.048 320.052 892.932 325.555 896.239C320.754 898.479 302.791 905.636 298.074 905.924Q302.985 896.142 308.368 886.611Z"/>
	<defs>
		<linearGradient id="gradient_4" gradientUnits="userSpaceOnUse" x1="276.02261" y1="774.93939" x2="448.48978" y2="722.17554">
			<stop offset="0" stop-color="#EF9113"/>
			<stop offset="1" stop-color="#F3AA1E"/>
		</linearGradient>
	</defs>
	<path fill="url(#gradient_4)" transform="scale(1.95312 1.95312)" d="M390.401 580.272C393.518 581.864 396.663 583.706 399.879 585.067C401.727 599.04 405.592 611.342 412.269 623.806C415.144 629.173 418.525 634.336 420.972 639.918C426.011 651.41 429.967 663.502 434.199 675.322C438.2 686.495 442.851 698.102 445.584 709.623C450.045 724.037 456.578 740.218 449.056 754.554C447.052 758.373 444.575 761.915 442.091 765.431C437.938 770.785 434.167 776.404 430.42 782.046Q423.865 789.498 417.078 796.74C387.819 829.398 363.404 867.666 354.394 911.108C344.569 906.847 335.565 899.877 325.555 896.239C320.052 892.932 314.298 889.048 308.368 886.611C311.711 879.561 316.387 872.699 320.251 865.879L344.983 821.711C349.74 813.189 355.005 804.61 358.318 795.401C361.802 785.715 363.1 775.117 363.717 764.878Q364.381 753.056 364.412 741.215C364.351 732.605 363.836 724.006 364.91 715.434C365.95 707.146 367.747 698.902 369.215 690.678C375.728 654.178 385.246 616.734 390.401 580.272Z"/>
	<path fill="#F6D0BA" transform="scale(1.95312 1.95312)" d="M325.56 550.354Q342.366 558.622 359.536 566.104Q359.202 587.438 357.642 608.718Q356.081 629.998 353.299 651.153C350.376 672.717 346.074 694.065 343.114 715.633C340.713 733.129 340.291 755.673 335.836 772.089C332.963 782.675 327.361 793.126 323.195 803.317C311.376 832.229 297.886 860.409 284.487 888.613C279.555 898.995 274.156 909.217 269.56 919.75C265.441 929.189 261.835 938.881 258.125 948.489C253.391 960.752 247.832 973.198 245.231 986.117C243.63 994.067 243.878 1015.58 245.843 1023.49L245.972 1024L221.996 1024C222.621 1011.97 223.39 999.925 225.416 988.034C228.868 967.764 234.664 947.814 238.918 927.679C241.986 918.379 243.724 908.164 246.264 898.651Q253.495 872.073 261.387 845.684Q241.476 828.234 223.702 808.612C217.19 801.368 211.318 793.491 204.623 786.425L204.6 786.14C207.633 784.476 210.712 780.863 213.32 778.491C219.782 772.611 226.191 766.622 232.893 761.016Q262.188 736.895 292.377 713.903C300.307 707.887 308.084 701.512 316.271 695.857C316.805 693.301 316.735 690.255 316.938 687.629C317.686 677.9 317.897 668.138 318.469 658.397L321.63 610.638C322.582 594.586 323.18 578.566 324.502 562.53Q325.155 556.453 325.56 550.354Z"/>
	<path fill="#F6B520" transform="scale(1.95312 1.95312)" d="M204.6 786.14C207.633 784.476 210.712 780.863 213.32 778.491C219.782 772.611 226.191 766.622 232.893 761.016Q262.188 736.895 292.377 713.903C300.307 707.887 308.084 701.512 316.271 695.857C316.088 699.143 316.764 704.326 315.753 707.322C314.008 712.496 311.009 717.543 308.563 722.416Q303.415 732.644 298.93 743.18C284.862 776.275 271.263 811.085 261.387 845.684Q241.476 828.234 223.702 808.612C217.19 801.368 211.318 793.491 204.623 786.425L204.6 786.14Z"/>
	<path fill="#DC2962" transform="scale(1.95312 1.95312)" d="M554.089 347.329C557.553 363.151 562.422 381.71 576.945 390.992C578.306 391.862 579.721 392.613 581.175 393.316C584.312 394.723 587.056 396.073 590.592 395.66C594.587 397.451 599.045 398.191 603.316 399.059C609.877 401.113 619.412 403.638 626.282 403.22L626.575 403.805L659.031 408.353C666.362 409.381 673.928 410.158 681.082 412.097C690.811 419.621 698.771 426.301 703.989 437.746C707.616 446.298 707.177 462.362 707.713 472.038C714.458 466.907 721.703 462.243 728.162 456.781C729.22 474.041 730.141 491.393 730.693 508.676C724.192 513.877 714.841 520.962 709.31 526.868C694.633 539.314 679.634 551.908 665.879 565.364L664.421 566.876C657.671 573.366 650.783 579.876 644.795 587.087C644.561 590.285 644.156 593.401 643.65 596.566C644.606 597.139 644.416 597.014 644.678 598.021C645.523 601.263 645.64 604.791 646.096 608.116L649.148 630.075L660.758 712.585Q644.859 717.697 628.504 721.077C620.117 722.824 611.31 724.023 603.085 726.362C605.081 720.867 606.736 715.189 608.537 709.622C595.928 708.642 581.147 709.428 568.198 709.389Q527.838 709.198 487.479 709.522L481.255 709.626C469.364 709.493 457.473 709.765 445.584 709.623C442.851 698.102 438.2 686.495 434.199 675.322C429.967 663.502 426.011 651.41 420.972 639.918C418.525 634.336 415.144 629.173 412.269 623.806C405.592 611.342 401.727 599.04 399.879 585.067C397.838 567.536 399.298 551.472 403.558 534.41Q411.753 533.944 419.961 534.044L420.431 533.814C419.452 527.322 417.94 520.819 416.694 514.367C414.838 507.187 413.78 499.695 412.382 492.41Q408.633 473.164 404.651 453.965C412.929 452.2 421.489 451.199 429.837 449.736Q449.201 446.208 468.432 442.016C476.144 440.339 484.448 438.936 491.745 435.866L493.065 435.654L496.582 433.181L497.55 433.397C515.175 420.125 542.132 368.293 554.089 347.329Z"/>
	<path fill="#9E0244" transform="scale(1.95312 1.95312)" d="M641.644 552.752C642.891 560.013 643.67 567.183 644.096 574.537C644.329 578.573 644.076 583.156 644.795 587.087C644.561 590.285 644.156 593.401 643.65 596.566L634.364 629.959C632.773 635.628 631.483 641.738 629.307 647.192C623.93 646.711 618.188 644.943 612.909 643.743C590.716 638.698 571.267 632.41 554.654 616.116C557.839 617.219 561.086 618.31 564.388 619.003Q565.91 619.31 567.446 619.543Q568.982 619.776 570.527 619.934Q572.072 620.093 573.622 620.177Q575.173 620.26 576.726 620.269Q578.279 620.277 579.831 620.211Q581.383 620.144 582.93 620.003Q584.476 619.861 586.014 619.645Q587.552 619.429 589.078 619.139Q590.604 618.849 592.114 618.486Q593.624 618.122 595.114 617.686Q596.605 617.25 598.073 616.742Q599.541 616.235 600.982 615.657Q602.424 615.079 603.836 614.432Q605.248 613.785 606.627 613.07Q608.006 612.356 609.349 611.576Q610.691 610.795 611.995 609.951C625.698 600.918 634.655 586.968 638.322 571.12C639.723 565.063 640.365 558.843 641.644 552.752Z"/>
	<path fill="#F09719" transform="scale(1.95312 1.95312)" d="M643.65 596.566C644.606 597.139 644.416 597.014 644.678 598.021C645.523 601.263 645.64 604.791 646.096 608.116L649.148 630.075L660.758 712.585Q644.859 717.697 628.504 721.077C620.117 722.824 611.31 724.023 603.085 726.362C605.081 720.867 606.736 715.189 608.537 709.622C611.681 703.709 613.406 695.652 615.509 689.197L629.307 647.192C631.483 641.738 632.773 635.628 634.364 629.959L643.65 596.566Z"/>
	<path fill="#F6D0BA" transform="scale(1.95312 1.95312)" d="M681.082 412.097C690.811 419.621 698.771 426.301 703.989 437.746C707.616 446.298 707.177 462.362 707.713 472.038C697.186 480.478 685.423 487.788 674.292 495.433C666.702 500.871 659.152 506.377 651.502 511.728C646.348 515.335 640.603 518.712 636.01 523.025C635.932 522.783 635.84 522.545 635.776 522.298C634.217 516.341 637.225 506.059 639.18 500.36C643.243 488.51 649.661 477.032 654.975 465.675C663.353 447.767 671.132 429.189 681.082 412.097Z"/>
	<path fill="#690A40" transform="scale(1.95312 1.95312)" d="M707.713 472.038C714.458 466.907 721.703 462.243 728.162 456.781C729.22 474.041 730.141 491.393 730.693 508.676C724.192 513.877 714.841 520.962 709.31 526.868C694.633 539.314 679.634 551.908 665.879 565.364L664.421 566.876C657.671 573.366 650.783 579.876 644.795 587.087C644.076 583.156 644.329 578.573 644.096 574.537C643.67 567.183 642.891 560.013 641.644 552.752C641.051 548.083 640.415 543.386 639.389 538.79C638.28 533.821 636.056 528.081 636.01 523.025C640.603 518.712 646.348 515.335 651.502 511.728C659.152 506.377 666.702 500.871 674.292 495.433C685.423 487.788 697.186 480.478 707.713 472.038Z"/>
	<path fill="#3E052C" transform="scale(1.95312 1.95312)" d="M636.01 523.025C640.603 518.712 646.348 515.335 651.502 511.728C659.152 506.377 666.702 500.871 674.292 495.433C675.294 496.575 675.9 496.838 675.673 498.493C675.124 502.483 673.369 506.476 672.448 510.415C669.399 523.455 663.259 552.824 665.879 565.364L664.421 566.876C657.671 573.366 650.783 579.876 644.795 587.087C644.076 583.156 644.329 578.573 644.096 574.537C643.67 567.183 642.891 560.013 641.644 552.752C641.051 548.083 640.415 543.386 639.389 538.79C638.28 533.821 636.056 528.081 636.01 523.025Z"/>
	<path fill="#FEFEFE" transform="scale(1.95312 1.95312)" d="M416.694 514.367C417.875 513.227 418.699 513.48 420.335 513.503C447.729 513.875 478.472 525 497.67 544.941C506.588 554.204 510.869 564.006 515.853 575.615C518.24 570.846 521.167 566.275 524.251 561.932C534.793 547.087 559.024 524.005 577.638 520.868C581.343 520.619 585.33 517.96 588.969 516.937C597.832 514.445 606.865 514.105 616.002 513.957Q615.38 520.408 614.96 526.875C584.15 534.948 557.27 552.294 540.916 580.261C527.768 602.745 524.488 628.126 521.394 653.523C520.606 647.179 520.49 640.783 519.722 634.441C515.675 601.023 506.631 579.95 479.429 558.711C466.008 548.232 452.085 541.116 435.537 537.021C430.533 535.783 425.42 535.037 420.431 533.814C419.452 527.322 417.94 520.819 416.694 514.367Z"/>
	<path fill="#DC2962" transform="scale(1.95312 1.95312)" d="M515.853 575.615C518.24 570.846 521.167 566.275 524.251 561.932C534.793 547.087 559.024 524.005 577.638 520.868C572.594 523.232 567.585 525.546 562.931 528.64C546.717 539.42 533.483 557.334 526.917 575.574C524.437 582.462 522.405 589.831 521.468 597.105Q518.856 586.309 515.853 575.615Z"/>
	<path fill="#9E0244" transform="scale(1.95312 1.95312)" d="M403.558 534.41Q411.753 533.944 419.961 534.044C414.248 553.134 410.569 572.22 420.597 590.68C427.546 603.472 439.935 612.826 453.859 616.844C470.185 621.555 486.41 619.535 501.152 611.297Q503.115 610.195 505.007 608.976C499.736 623.716 488.751 634.687 474.655 641.351C470.25 643.433 465.573 644.863 460.921 646.276Q466.202 655.43 470.657 665.013Q475.112 674.596 478.707 684.534C480.94 690.524 484.481 705.082 487.479 709.522L481.255 709.626C469.364 709.493 457.473 709.765 445.584 709.623C442.851 698.102 438.2 686.495 434.199 675.322C429.967 663.502 426.011 651.41 420.972 639.918C418.525 634.336 415.144 629.173 412.269 623.806C405.592 611.342 401.727 599.04 399.879 585.067C397.838 567.536 399.298 551.472 403.558 534.41Z"/>
	<path fill="#F6D0BA" transform="scale(1.95312 1.95312)" d="M554.089 347.329C557.553 363.151 562.422 381.71 576.945 390.992C578.306 391.862 579.721 392.613 581.175 393.316C584.312 394.723 587.056 396.073 590.592 395.66C594.587 397.451 599.045 398.191 603.316 399.059C609.877 401.113 619.412 403.638 626.282 403.22L626.575 403.805C624.929 424.484 622.483 445.122 620.477 465.77C618.918 481.816 617.888 497.948 616.002 513.957C606.865 514.105 597.832 514.445 588.969 516.937C585.33 517.96 581.343 520.619 577.638 520.868C559.024 524.005 534.793 547.087 524.251 561.932C521.167 566.275 518.24 570.846 515.853 575.615C510.869 564.006 506.588 554.204 497.67 544.941C478.472 525 447.729 513.875 420.335 513.503C418.699 513.48 417.875 513.227 416.694 514.367C414.838 507.187 413.78 499.695 412.382 492.41Q408.633 473.164 404.651 453.965C412.929 452.2 421.489 451.199 429.837 449.736Q449.201 446.208 468.432 442.016C476.144 440.339 484.448 438.936 491.745 435.866L493.065 435.654L496.582 433.181L497.55 433.397C515.175 420.125 542.132 368.293 554.089 347.329Z"/>
	<path fill="#F5775B" transform="scale(1.95312 1.95312)" d="M496.582 433.181L497.55 433.397C501.305 433.356 504.399 433.499 507.295 436.218C510.078 438.83 511.595 442.864 512.908 446.373C510.485 443.291 508.18 440.408 505.278 437.76C501.222 436.93 497.158 436.273 493.065 435.654L496.582 433.181Z"/>
	<path fill="#EE635F" transform="scale(1.95312 1.95312)" d="M612.241 410.607L613.029 410.426C612.823 411.244 612.094 411.136 611.365 411.373C605.108 413.411 598.696 414.878 592.384 416.724C582.389 419.648 572.45 422.709 562.423 425.539C554.761 427.701 545.731 429.313 538.694 432.922C535.703 434.455 534.179 436.106 532.23 438.737L531.76 439.15C531.879 436.577 533.111 433.541 534.465 431.354C535.784 429.223 537.922 428.398 540.208 427.587C546.502 425.354 553.53 424.385 560.045 422.842C577.442 418.722 594.912 415.015 612.241 410.607Z"/>
	<path fill="#EDC578" transform="scale(1.95312 1.95312)" d="M614.007 0L1024 0L1024 64.8596L1024 509.73L1024 704.963L1024 1024L792.764 1024C791.964 1011.07 793.166 997.984 791.421 985.104C790.627 979.25 788.933 973.392 787.559 967.641L782.068 943.976C778.991 930.7 776.25 917.345 773.131 904.083C768.743 885.423 763.98 866.759 760.134 847.982C758.156 840.897 756.671 833.624 754.832 826.494C749.545 805.99 744.043 785.091 737.473 764.969C732.131 748.608 721.143 734.546 716.676 719.538C714.414 711.937 713.876 703.797 713.501 695.918Q708.848 644.313 709.032 592.5C709.039 570.693 710.278 548.64 709.31 526.868C714.841 520.962 724.192 513.877 730.693 508.676C730.141 491.393 729.22 474.041 728.162 456.781C721.703 462.243 714.458 466.907 707.713 472.038C707.177 462.362 707.616 446.298 703.989 437.746C698.771 426.301 690.811 419.621 681.082 412.097C673.928 410.158 666.362 409.381 659.031 408.353L626.575 403.805L626.282 403.22C619.412 403.638 609.877 401.113 603.316 399.059C599.045 398.191 594.587 397.451 590.592 395.66C587.056 396.073 584.312 394.723 581.175 393.316C579.721 392.613 578.306 391.862 576.945 390.992C562.422 381.71 557.553 363.151 554.089 347.329C552.939 338.67 551.485 330.432 551.506 321.638C569.928 304.138 580.296 288.648 587.932 264.269C588.283 261.494 589.522 258.4 590.296 255.682C593.342 248.336 595.751 239.308 596.018 231.369C595.846 228.103 596.087 224.741 596.02 221.454C594.454 214.17 595.113 206.64 592.911 199.348C587.127 180.196 572.438 164.806 565.006 146.55C561.557 138.079 562.279 131.429 565.753 123.122C567.062 119.031 568.949 115.074 570.639 111.127C572.957 105.743 574.875 100.706 579.088 96.4369C587.929 104.49 594.687 116.035 599.671 126.843C600.858 125.324 601.867 123.64 602.823 121.968C606.911 114.818 609.988 106.665 612.552 98.8555C623.175 66.5043 622.746 32.6681 614.007 0Z"/>
	<path fill="#F6B520" transform="scale(1.95312 1.95312)" d="M579.088 96.4369C587.929 104.49 594.687 116.035 599.671 126.843Q604.737 138.165 608.975 149.823C617.247 150.052 634.024 157.211 642.147 160.453Q647.939 162.758 653.666 165.221Q659.393 167.685 665.049 170.306Q670.705 172.928 676.287 175.704Q681.869 178.48 687.371 181.41Q692.874 184.34 698.294 187.42Q703.714 190.501 709.046 193.73Q714.379 196.959 719.62 200.334Q724.862 203.71 730.008 207.228Q735.154 210.747 740.201 214.407Q745.247 218.067 750.191 221.864Q755.135 225.662 759.972 229.595Q764.809 233.528 769.535 237.593Q774.262 241.658 778.874 245.852Q783.487 250.046 787.981 254.366Q792.476 258.686 796.849 263.129Q801.223 267.571 805.472 272.133Q825.011 292.992 842.146 315.867L842.104 316.14Q818.905 340.283 794.335 363.029Q769.765 385.775 743.907 407.046C730.879 417.69 717.382 427.582 703.989 437.746C698.771 426.301 690.811 419.621 681.082 412.097C673.928 410.158 666.362 409.381 659.031 408.353L626.575 403.805L626.282 403.22C619.412 403.638 609.877 401.113 603.316 399.059C599.045 398.191 594.587 397.451 590.592 395.66C587.056 396.073 584.312 394.723 581.175 393.316C579.721 392.613 578.306 391.862 576.945 390.992C562.422 381.71 557.553 363.151 554.089 347.329C552.939 338.67 551.485 330.432 551.506 321.638C569.928 304.138 580.296 288.648 587.932 264.269C588.283 261.494 589.522 258.4 590.296 255.682C593.342 248.336 595.751 239.308 596.018 231.369C595.846 228.103 596.087 224.741 596.02 221.454C594.454 214.17 595.113 206.64 592.911 199.348C587.127 180.196 572.438 164.806 565.006 146.55C561.557 138.079 562.279 131.429 565.753 123.122C567.062 119.031 568.949 115.074 570.639 111.127C572.957 105.743 574.875 100.706 579.088 96.4369Z"/>
	<path fill="#53406D" transform="scale(1.95312 1.95312)" d="M579.088 96.4369C587.929 104.49 594.687 116.035 599.671 126.843Q604.737 138.165 608.975 149.823C612.03 160.785 614.533 171.709 616.245 182.97C617.762 192.946 617.686 209.165 621.384 217.596C627.737 232.08 637.411 246.458 646.855 259.139C667.203 286.462 704.053 324.513 683.182 360.978C671.596 381.222 647.498 394.834 626.282 403.22C619.412 403.638 609.877 401.113 603.316 399.059C599.045 398.191 594.587 397.451 590.592 395.66C587.056 396.073 584.312 394.723 581.175 393.316C579.721 392.613 578.306 391.862 576.945 390.992C562.422 381.71 557.553 363.151 554.089 347.329C552.939 338.67 551.485 330.432 551.506 321.638C569.928 304.138 580.296 288.648 587.932 264.269C588.283 261.494 589.522 258.4 590.296 255.682C593.342 248.336 595.751 239.308 596.018 231.369C595.846 228.103 596.087 224.741 596.02 221.454C594.454 214.17 595.113 206.64 592.911 199.348C587.127 180.196 572.438 164.806 565.006 146.55C561.557 138.079 562.279 131.429 565.753 123.122C567.062 119.031 568.949 115.074 570.639 111.127C572.957 105.743 574.875 100.706 579.088 96.4369Z"/>
	<path fill="#201728" transform="scale(1.95312 1.95312)" d="M565.753 123.122C565.828 123.293 565.919 123.458 565.978 123.636C566.489 125.175 566.229 126.969 566.37 128.589C566.725 132.673 568.037 137.007 569.716 140.729C573.462 149.029 579.796 157.119 585.117 164.483C597.335 181.394 608.013 197.239 614.801 217.264C611.221 215.361 607.802 214.113 603.731 215.416C600.365 216.493 598.155 218.761 596.02 221.454C594.454 214.17 595.113 206.64 592.911 199.348C587.127 180.196 572.438 164.806 565.006 146.55C561.557 138.079 562.279 131.429 565.753 123.122Z"/>
	<path fill="#F6B520" transform="scale(1.95312 1.95312)" d="M647.179 285.411C656.739 303.214 664.491 324.775 658.357 344.996C650.622 370.494 625.167 386.653 603.316 399.059C599.045 398.191 594.587 397.451 590.592 395.66C613.086 385.185 641.717 364.204 650.453 340.19C657.595 320.558 652.172 304.547 647.179 285.411Z"/>
	<path fill="#201728" transform="scale(1.95312 1.95312)" d="M596.02 221.454C598.155 218.761 600.365 216.493 603.731 215.416C607.802 214.113 611.221 215.361 614.801 217.264C617.269 222.88 615.406 226.93 615.636 232.568C617.383 236.132 616.641 250.18 616.749 255.244C617.127 272.934 619.316 290.497 619.855 308.157Q620.197 320.009 619.598 331.85Q619.204 337.739 618.072 343.531Q616.939 349.323 615.085 354.926C610.325 368.98 602.565 377.429 590.641 386.046C587.625 388.225 583.528 390.452 581.175 393.316C579.721 392.613 578.306 391.862 576.945 390.992C562.422 381.71 557.553 363.151 554.089 347.329C552.939 338.67 551.485 330.432 551.506 321.638C569.928 304.138 580.296 288.648 587.932 264.269C588.283 261.494 589.522 258.4 590.296 255.682C593.342 248.336 595.751 239.308 596.018 231.369C595.846 228.103 596.087 224.741 596.02 221.454Z"/>
	<path fill="#FEFEFE" transform="scale(1.95312 1.95312)" d="M590.296 255.682C592.921 256.54 595.556 257.165 598.337 257.121L598.401 257.325C600.296 257.338 602.064 257.426 603.931 257.761C603.821 261.425 603.52 265.395 600.625 268.037C599.604 268.968 598.249 269.484 596.932 269.826C595.36 269.951 592.795 270.037 591.366 269.295C589.164 268.152 588.749 266.473 587.932 264.269C588.283 261.494 589.522 258.4 590.296 255.682Z"/>
	<path fill="#F5775B" transform="scale(1.95312 1.95312)" d="M590.296 255.682C592.921 256.54 595.556 257.165 598.337 257.121L598.401 257.325C596.52 258.685 594.699 261.216 594.392 263.563C594.158 265.351 594.366 267.005 595.585 268.418C596.009 268.911 596.47 269.369 596.932 269.826C595.36 269.951 592.795 270.037 591.366 269.295C589.164 268.152 588.749 266.473 587.932 264.269C588.283 261.494 589.522 258.4 590.296 255.682Z"/>
	<path fill="#E4393A" transform="scale(1.95312 1.95312)" d="M596.02 221.454C598.155 218.761 600.365 216.493 603.731 215.416C607.802 214.113 611.221 215.361 614.801 217.264C617.269 222.88 615.406 226.93 615.636 232.568C613.326 242.235 609.876 249.774 603.931 257.761C602.064 257.426 600.296 257.338 598.401 257.325L598.337 257.121C595.556 257.165 592.921 256.54 590.296 255.682C593.342 248.336 595.751 239.308 596.018 231.369C595.846 228.103 596.087 224.741 596.02 221.454Z"/>
	<path fill="#EE635F" transform="scale(1.95312 1.95312)" d="M600.599 234.156C600.859 235.711 600.691 236.722 602.224 237.607C604.155 238.721 606.004 238.686 607.728 240.386L607.321 240.833C606.172 242.839 604.445 244.562 603.416 246.554Q602.098 246.135 600.797 245.664C599.938 244.32 600.142 243.79 600.201 242.229L600.599 234.156Z"/>
	<path fill="#E89090" transform="scale(1.95312 1.95312)" d="M600.201 242.229C602.612 241.982 604.961 241.372 607.321 240.833C606.172 242.839 604.445 244.562 603.416 246.554Q602.098 246.135 600.797 245.664C599.938 244.32 600.142 243.79 600.201 242.229Z"/>
	<path fill="#E89090" transform="scale(1.95312 1.95312)" d="M600.599 234.156C603.459 233.812 606.662 233.566 608.635 231.189C607.953 229.811 604.887 228.751 603.447 227.817C602.837 226.719 602.551 226.414 602.933 225.118C603.295 223.895 604.651 222.503 605.788 221.99C607.344 221.288 610.238 221.496 611.712 222.272C612.582 222.73 611.882 222.547 612.851 222.779C612.997 222.814 613.147 222.834 613.295 222.862C614.111 223.99 614.265 224.149 614.348 225.521L613.947 225.84C609.517 229.426 611.149 235.502 607.728 240.386C606.004 238.686 604.155 238.721 602.224 237.607C600.691 236.722 600.859 235.711 600.599 234.156Z"/>
	<path fill="#F9A99B" transform="scale(1.95312 1.95312)" d="M596.02 221.454C598.155 218.761 600.365 216.493 603.731 215.416C607.802 214.113 611.221 215.361 614.801 217.264C617.269 222.88 615.406 226.93 615.636 232.568C613.326 242.235 609.876 249.774 603.931 257.761C602.064 257.426 600.296 257.338 598.401 257.325L598.337 257.121L600.202 256.854L600.216 256.513C598.14 255.633 595.976 255.01 593.825 254.34C594.405 252.222 594.749 249.94 596.307 248.311C598.128 248.053 599.182 248.772 600.864 249.458C602.416 248.954 602.609 247.931 603.416 246.554C604.445 244.562 606.172 242.839 607.321 240.833L607.728 240.386C611.149 235.502 609.517 229.426 613.947 225.84L614.348 225.521C614.265 224.149 614.111 223.99 613.295 222.862C612.223 221.343 611.18 220.263 609.252 219.948C606.944 219.571 604.845 220.724 603.15 222.177C600.161 224.738 598.144 228.106 596.018 231.369C595.846 228.103 596.087 224.741 596.02 221.454Z"/>
	<path fill="#E89090" transform="scale(1.95312 1.95312)" d="M842.146 315.867C844.681 312.325 848.219 309.115 851.225 305.951Q859.364 297.447 867.346 288.797Q887.694 266.151 906.534 242.236C933.965 207.377 960.213 171.807 983.68 134.14C993.076 119.06 1002.59 103.802 1011.35 88.3478C1015.73 80.6297 1019.47 72.4571 1024 64.8596L1024 509.73C992.815 538.439 961.665 560.94 926.706 584.749C921.123 588.551 910.284 597.011 904.694 599.103Q904.955 597.582 905.192 596.057C908.513 574.393 910.911 552.682 911.051 530.742Q911.072 527.16 911.023 523.579Q910.973 519.998 910.853 516.418Q910.732 512.838 910.541 509.262Q910.35 505.685 910.088 502.113Q909.826 498.541 909.493 494.975Q909.16 491.408 908.757 487.85Q908.354 484.291 907.88 480.74Q907.406 477.19 906.862 473.65Q906.318 470.11 905.705 466.581Q905.091 463.052 904.407 459.536Q903.723 456.021 902.97 452.519Q902.217 449.017 901.395 445.531Q900.573 442.045 899.681 438.576Q898.79 435.107 897.831 431.656Q896.871 428.206 895.843 424.775Q894.815 421.344 893.72 417.934Q892.624 414.524 891.461 411.136Q890.298 407.748 889.069 404.384Q887.839 401.02 886.543 397.681Q885.247 394.342 883.885 391.03Q882.523 387.717 881.095 384.432Q879.668 381.147 878.176 377.891Q876.684 374.635 875.128 371.409Q873.572 368.183 871.952 364.988Q870.332 361.794 868.649 358.632Q866.966 355.47 865.221 352.342Q863.476 349.214 861.67 346.122Q859.863 343.029 857.996 339.973Q856.128 336.917 854.201 333.898Q852.273 330.879 850.286 327.899Q848.299 324.919 846.253 321.979Q844.207 319.039 842.104 316.14L842.146 315.867Z"/>
	<path fill="#F09719" transform="scale(1.95312 1.95312)" d="M842.104 316.14Q844.207 319.039 846.253 321.979Q848.299 324.919 850.286 327.899Q852.273 330.879 854.201 333.898Q856.128 336.916 857.996 339.973Q859.863 343.029 861.67 346.122Q863.476 349.214 865.221 352.342Q866.966 355.47 868.649 358.632Q870.332 361.794 871.952 364.988Q873.572 368.183 875.128 371.409Q876.684 374.635 878.176 377.891Q879.668 381.147 881.095 384.432Q882.523 387.717 883.885 391.03Q885.247 394.342 886.543 397.681Q887.839 401.02 889.069 404.384Q890.298 407.748 891.461 411.136Q892.624 414.524 893.72 417.934Q894.815 421.344 895.843 424.775Q896.871 428.206 897.831 431.656Q898.79 435.107 899.681 438.576Q900.573 442.045 901.395 445.531Q902.217 449.017 902.97 452.519Q903.723 456.021 904.407 459.537Q905.091 463.052 905.705 466.581Q906.318 470.11 906.862 473.65Q907.406 477.19 907.88 480.74Q908.354 484.291 908.757 487.85Q909.16 491.408 909.493 494.975Q909.826 498.541 910.088 502.113Q910.35 505.685 910.541 509.262Q910.732 512.838 910.853 516.418Q910.973 519.998 911.023 523.579Q911.072 527.16 911.051 530.742C910.911 552.682 908.513 574.393 905.192 596.057Q904.955 597.582 904.694 599.103L904.516 599.6C841.849 638.955 782.686 669.571 713.501 695.918Q708.848 644.313 709.032 592.5C709.039 570.693 710.278 548.64 709.31 526.868C714.841 520.962 724.192 513.877 730.693 508.676C730.141 491.393 729.22 474.041 728.162 456.781C721.703 462.243 714.458 466.907 707.713 472.038C707.177 462.362 707.616 446.298 703.989 437.746C717.382 427.582 730.879 417.69 743.907 407.046Q769.765 385.775 794.335 363.029Q818.905 340.283 842.104 316.14Z"/>
	<path fill="#E89090" transform="scale(1.95312 1.95312)" d="M1024 509.73L1024 704.963L1024 1024L792.764 1024C791.964 1011.07 793.166 997.984 791.421 985.104C790.627 979.25 788.933 973.392 787.559 967.641L782.068 943.976C778.991 930.7 776.25 917.345 773.131 904.083C768.743 885.423 763.98 866.759 760.134 847.982C758.156 840.897 756.671 833.624 754.832 826.494C749.545 805.99 744.043 785.091 737.473 764.969C732.131 748.608 721.143 734.546 716.676 719.538C714.414 711.937 713.876 703.797 713.501 695.918C782.686 669.571 841.849 638.955 904.516 599.6L904.694 599.103C910.284 597.011 921.123 588.551 926.706 584.749C961.665 560.94 992.815 538.439 1024 509.73Z"/>
	<path fill="#EDC578" transform="scale(1.95312 1.95312)" d="M1024 509.73L1024 704.963Q981.649 730.757 938.166 754.594Q894.684 778.431 850.16 800.261Q826.682 811.876 803.014 823.1C793.959 827.417 784.867 832.223 775.541 835.904C772.277 838.638 763.665 846.822 760.134 847.982C758.156 840.897 756.671 833.624 754.832 826.494C749.545 805.99 744.043 785.091 737.473 764.969C732.131 748.608 721.143 734.546 716.676 719.538C714.414 711.937 713.876 703.797 713.501 695.918C782.686 669.571 841.849 638.955 904.516 599.6L904.694 599.103C910.284 597.011 921.123 588.551 926.706 584.749C961.665 560.94 992.815 538.439 1024 509.73Z"/>
	<path fill="#F6B520" transform="scale(1.95312 1.95312)" d="M713.501 695.918C782.686 669.571 841.849 638.955 904.516 599.6C892.334 670.253 858.636 738.03 813.848 793.626C806.773 802.409 799.244 811.065 791.441 819.204C786.229 824.64 780.143 829.982 775.541 835.904C772.277 838.638 763.665 846.822 760.134 847.982C758.156 840.897 756.671 833.624 754.832 826.494C749.545 805.99 744.043 785.091 737.473 764.969C732.131 748.608 721.143 734.546 716.676 719.538C714.414 711.937 713.876 703.797 713.501 695.918Z"/>
</svg>
